{"accessors" : [{"bufferView" : 0, "byteOffset" : 0, "componentType" : 5125, "count" : 348348, "type" : "SCALAR", "max" : [90528], "min" : [0]}, {"bufferView" : 1, "byteOffset" : 0, "componentType" : 5126, "count" : 90529, "type" : "VEC3", "max" : [219.0792999267578, 282.6834716796875, 238.6002197265625], "min" : [-213.42369079589844, -302.5833435058594, -294.33953857421875], "name" : "POSITION"}, {"bufferView" : 1, "byteOffset" : 12, "componentType" : 5126, "count" : 90529, "type" : "VEC2", "max" : [0.9961299896240234, 0.9979699850082397], "min" : [0.00017699999443721026, 7.987022399902344E-06], "name" : "TEXCOORD_0"}, {"bufferView" : 1, "byteOffset" : 20, "componentType" : 5126, "count" : 90529, "type" : "VEC3", "max" : [0.4375408887863159, 0.9999397993087769, 0.999984622001648], "min" : [-1.000002384185791, -0.9154917597770691, -0.9995535016059875], "name" : "NORMAL"}], "asset" : {"generator" : "Aspose.3D 25.6.0", "version" : "2.0"}, "buffers" : [{"uri" : "buffer.bin", "byteLength" : 5184788}], "bufferViews" : [{"buffer" : 0, "byteOffset" : 0, "byteLength" : 1393392, "target" : 34963}, {"buffer" : 0, "byteOffset" : 1393396, "byteLength" : 2896928, "byteStride" : 32, "target" : 34962}, {"buffer" : 0, "byteOffset" : 4290328, "byteLength" : 876540}, {"buffer" : 0, "byteOffset" : 5166872, "byteLength" : 17912}], "images" : [{"mimeType" : "image/jpeg", "bufferView" : 2}, {"mimeType" : "image/jpeg", "bufferView" : 3}], "materials" : [{"name" : "g0", "pbrMetallicRoughness" : {"baseColorFactor" : [1, 1, 1, 1], "baseColorTexture" : {"index" : 0, "texCoord" : 0}, "metallicFactor" : 0, "roughnessFactor" : 0, "metallicRoughnessTexture" : {"index" : 1, "texCoord" : 0}}, "emissiveFactor" : [0, 0, 0], "alphaMode" : "OPAQUE", "doubleSided" : false}], "meshes" : [{"primitives" : [{"attributes" : {"POSITION" : 1, "TEXCOORD_0" : 2, "NORMAL" : 3}, "indices" : 0, "material" : 0, "mode" : 4}], "name" : "Node_0"}], "nodes" : [{"mesh" : 0, "name" : "_4_41_15"}], "samplers" : [{"magFilter" : 9729, "minFilter" : 9729, "wrapS" : 10497, "wrapT" : 10497}, {"magFilter" : 9729, "minFilter" : 9729, "wrapS" : 10497, "wrapT" : 10497}], "scene" : 0, "scenes" : [{"nodes" : [0]}], "textures" : [{"sampler" : 0, "source" : 0, "name" : "diffuseColor_texture"}, {"sampler" : 1, "source" : 1, "name" : "metallic_texture"}]}
